<svg xmlns="http://www.w3.org/2000/svg" width="24" height="24" viewBox="0 0 24 24" fill="none" stroke="currentColor" stroke-width="2" stroke-linecap="round" stroke-linejoin="round" class="lucide lucide-soccer-ball"><circle cx="12" cy="12" r="10"/><path d="M12 2a9.96 9.96 0 0 0-7.071 2.929A9.96 9.96 0 0 0 2 12"/><path d="M12 22a9.96 9.96 0 0 1-7.071-2.929A9.96 9.96 0 0 1 2 12"/><path d="M21.6 18.8A9.96 9.96 0 0 0 22 12c0-2.387-.835-4.58-2.229-6.303"/><path d="M12 2v10"/><path d="m2 8 10 4"/><path d="m22 8-10 4"/><path d="M12 22v-4"/><path d="m4 16 8-2"/><path d="m20 16-8-2"/></svg>